<?xml version="1.0" encoding="UTF-8" standalone="no"?>
<svg
   xmlns:dc="http://purl.org/dc/elements/1.1/"
   xmlns:cc="http://creativecommons.org/ns#"
   xmlns:rdf="http://www.w3.org/1999/02/22-rdf-syntax-ns#"
   xmlns:svg="http://www.w3.org/2000/svg"
   xmlns="http://www.w3.org/2000/svg"
   xmlns:sodipodi="http://sodipodi.sourceforge.net/DTD/sodipodi-0.dtd"
   xmlns:inkscape="http://www.inkscape.org/namespaces/inkscape"
   version="1.1"
   x="0px"
   y="0px"
   viewBox="0 0 74.2 77.5"
   xml:space="preserve"
   id="svg2"
   inkscape:version="0.48.4 r9939"
   width="100%"
   height="100%"
   sodipodi:docname="download.svg"><metadata
     id="metadata18"><rdf:RDF><cc:Work
         rdf:about=""><dc:format>image/svg+xml</dc:format><dc:type
           rdf:resource="http://purl.org/dc/dcmitype/StillImage" /></cc:Work></rdf:RDF></metadata><defs
     id="defs16" /><sodipodi:namedview
     pagecolor="#ffffff"
     bordercolor="#666666"
     borderopacity="1"
     objecttolerance="10"
     gridtolerance="10"
     guidetolerance="10"
     inkscape:pageopacity="0"
     inkscape:pageshadow="2"
     inkscape:window-width="1366"
     inkscape:window-height="768"
     id="namedview14"
     showgrid="false"
     fit-margin-top="0"
     fit-margin-left="0"
     fit-margin-right="0"
     fit-margin-bottom="0"
     inkscape:zoom="1.888"
     inkscape:cx="-164.37119"
     inkscape:cy="24.5"
     inkscape:window-x="0"
     inkscape:window-y="0"
     inkscape:window-maximized="0"
     inkscape:current-layer="svg2" /><g
     id="g4"
     transform="translate(-13.1,-9.5)"
     style="fill:#4291ed;fill-opacity:1"><path
       d="m 23.6,49.3 25.8,25.8 c 0.1,0.1 0.1,0.1 0.2,0.2 0,0 0,0 0,0 0.1,0 0.1,0.1 0.2,0.1 0,0 0.1,0 0.1,0 0.1,0 0.1,0 0.2,0.1 0.1,0 0.2,0 0.3,0 0,0 0,0 0,0 0.1,0 0.1,0 0.2,0 0.3,0 0.6,-0.2 0.9,-0.4 0,0 0,0 0,0 L 76.9,49.3 c 0.6,-0.6 0.6,-1.5 0,-2.1 -0.6,-0.6 -1.5,-0.6 -2.1,0 L 51.9,70.4 V 11 c 0,-0.8 -0.7,-1.5 -1.5,-1.5 -0.8,0 -1.5,0.7 -1.5,1.5 V 70.4 L 25.7,47.2 c -0.6,-0.6 -1.5,-0.6 -2.1,0 -0.6,0.6 -0.6,1.5 0,2.1 z"
       id="path6"
       inkscape:connector-curvature="0"
       style="fill:#4291ed;fill-opacity:1" /><path
       d="m 85.8,68.6 c -0.8,0 -1.5,0.7 -1.5,1.5 V 84 H 16.1 V 70.1 c 0,-0.8 -0.7,-1.5 -1.5,-1.5 -0.8,0 -1.5,0.7 -1.5,1.5 V 87 H 87.3 V 70.1 c 0,-0.9 -0.7,-1.5 -1.5,-1.5 z"
       id="path8"
       inkscape:connector-curvature="0"
       style="fill:#4291ed;fill-opacity:1" /></g></svg>